<svg xmlns="http://www.w3.org/2000/svg" xmlns:xlink="http://www.w3.org/1999/xlink" viewBox="0,0,256,256" width="32px" height="32px" fill-rule="nonzero"><g fill="#ffffff" fill-rule="nonzero" stroke="none" stroke-width="1" stroke-linecap="butt" stroke-linejoin="miter" stroke-miterlimit="10" stroke-dasharray="" stroke-dashoffset="0" font-family="none" font-weight="none" font-size="none" text-anchor="none" style="mix-blend-mode: normal"><g transform="scale(8,8)"><path d="M9.09375,5c-2.24219,0 -4.09375,1.85156 -4.09375,4.09375v13.8125c0,2.24219 1.85156,4.09375 4.09375,4.09375h13.8125c2.24219,0 4.09375,-1.85156 4.09375,-4.09375v-13.8125c0,-2.24219 -1.85156,-4.09375 -4.09375,-4.09375zM9.09375,7h13.8125c1.16016,0 2.09375,0.93359 2.09375,2.09375v13.8125c0,1.16016 -0.93359,2.09375 -2.09375,2.09375h-13.8125c-1.16016,0 -2.09375,-0.93359 -2.09375,-2.09375v-13.8125c0,-1.16016 0.93359,-2.09375 2.09375,-2.09375zM12.09375,10.5625v10.875h4.5c2.05469,0 4.25,-0.89453 4.25,-3.34375c0,-1.98437 -1.54687,-2.48437 -2.21875,-2.625v-0.03125c0.46484,-0.19531 1.5,-0.85937 1.5,-2.34375c0,-1.59766 -1.07812,-2.53125 -3.78125,-2.53125zM14.875,12.5625c0,0 1.03516,0 1.28125,0c1.12891,0 1.1875,0.91797 1.1875,1.09375c0,0.70703 -0.50781,1.1875 -1.15625,1.1875c-0.1875,0 -1.3125,0.03125 -1.3125,0.03125zM14.875,16.71875c0,0 1.36719,-0.00781 1.65625,0c0.28906,0.00781 1.5,0.06641 1.5,1.34375c0,1.27344 -1.26172,1.36328 -1.53125,1.375c-0.26953,0.01172 -1.625,0 -1.625,0z"></path></g></g></svg>